<?xml version="1.0" encoding="utf-8"?>
<!-- Generator: Adobe Illustrator 19.0.0, SVG Export Plug-In . SVG Version: 6.00 Build 0)  -->
<svg version="1.1" xmlns="http://www.w3.org/2000/svg" xmlns:xlink="http://www.w3.org/1999/xlink" x="0px" y="0px"
	 viewBox="0 0 1100 1000" style="enable-background:new 0 0 1100 1000;" xml:space="preserve">
<style type="text/css">
	.st0{display:none;}
	.st1{display:inline;fill:#E86029;}
	.st2{display:inline;fill:#80C54F;}
	.st3{display:inline;fill:#62C7B4;}
	.st4{display:inline;fill:#43C0E4;}
	.st5{display:inline;fill:#FAB433;}
	.st6{display:inline;fill:#020202;}
	.st7{fill:#62C7B4;}
	.st8{fill:#E86029;}
	.st9{fill:#80C54F;}
	.st10{fill:#43C0E4;}
	.st11{fill:#fff;}
	.st12{font-family:'Arial-BoldMT';}
	.st13{font-size:222.0578px;}
	.st14{fill:#fff;}
	.st15{font-family:'Caudex';}
	.st16{font-size:236.1844px;}
	.st17{font-size:250.1552px;}
</style>
<g id="Layer_1" class="st0">
	<rect x="-180.5" y="9.5" class="st1" width="126.1" height="114.8"/>
	<rect x="-180.5" y="158.4" class="st2" width="126.1" height="112.5"/>
	<rect x="-180.5" y="311.8" class="st3" width="126.1" height="128.4"/>
	<rect x="-180.5" y="461.8" class="st4" width="126.1" height="106.8"/>
	<rect x="-180.5" y="591.3" class="st5" width="126.1" height="85.2"/>
	<rect x="-180.5" y="697" class="st6" width="126.1" height="97.7"/>
</g>
<g id="Layer_2">
</g>
<g id="Layer_3">
	<polygon class="st7" points="428.6,600.4 428.6,457.2 402.5,457.2 402.5,624.3 570.7,624.3 570.7,600.4 	"/>
</g>
<g id="Layer_4">
	<polygon class="st8" points="428.6,260.6 571.8,260.6 571.8,237 402.5,237 402.5,402.7 428.6,402.7 	"/>
</g>
<g id="Layer_5">
	<polygon class="st9" points="626.4,237 626.4,260.6 766.1,260.6 766.1,402.7 791.1,402.7 791.1,237 	"/>
</g>
<g id="Layer_6">
	<polygon class="st10" points="766.1,458.4 766.1,600.4 626.4,600.4 626.4,624.3 791.1,624.3 791.1,458.4 	"/>
</g>
<g id="Layer_7">
	<text transform="matrix(1 0 0 1 514.4067 505.8409)" class="st11 st12 st13">N</text>
</g>
<g id="Layer_8">
	<g>
		<text transform="matrix(0.9767 0 0 1 119.2271 832.9639)" class="st14 st15 st16">nau</text>
	</g>
</g>
<g id="Layer_9">
	<text transform="matrix(0.9767 0 0 1 741.9092 834.6836)" class="st14 st15 st16">an</text>
</g>
<g id="Layer_10">
	<g>
		<text transform="matrix(0.9294 0 0 1 552.5 830.0547)" class="st14 st15 st17">&amp;</text>
	</g>
</g>
</svg>
