<?xml version="1.0" encoding="utf-8"?>
<!-- Generator: Adobe Illustrator 16.0.0, SVG Export Plug-In . SVG Version: 6.00 Build 0)  -->
<!DOCTYPE svg PUBLIC "-//W3C//DTD SVG 1.1//EN" "http://www.w3.org/Graphics/SVG/1.1/DTD/svg11.dtd">
<svg version="1.1" xmlns="http://www.w3.org/2000/svg" xmlns:xlink="http://www.w3.org/1999/xlink" x="0px" y="0px" width="1100px"
	 height="1000px" viewBox="0 0 1100 1000" enable-background="new 0 0 1100 1000" xml:space="preserve">
<g id="Layer_1" display="none">
	<rect x="-180.455" y="9.5" display="inline" fill="#E9632F" width="126.136" height="114.772"/>
	<rect x="-180.455" y="158.363" display="inline" fill="#78C75B" width="126.136" height="112.5"/>
	<rect x="-180.455" y="311.772" display="inline" fill="#5BC6B4" width="126.136" height="128.409"/>
	<rect x="-180.455" y="461.772" display="inline" fill="#41BDE1" width="126.136" height="106.818"/>
	<rect x="-180.455" y="591.318" display="inline" fill="#F9B744" width="126.136" height="85.227"/>
	<rect x="-180.455" y="697" display="inline" fill="#020202" width="126.136" height="97.728"/>
</g>
<g id="Layer_2">
</g>
<g id="Layer_3">
	<polygon fill="#5BC6B4" points="428.636,600.409 428.636,457.227 402.5,457.227 402.5,624.273 570.682,624.273 570.682,600.409 	
		"/>
</g>
<g id="Layer_4">
	<polygon fill="#E9632F" points="428.636,260.636 571.818,260.636 571.818,237.043 402.5,237.043 402.5,402.682 428.636,402.682 	
		"/>
</g>
<g id="Layer_5">
	<polygon fill="#78C75B" points="626.363,237.043 626.363,260.636 766.137,260.636 766.137,402.682 791.137,402.682 
		791.137,237.043 	"/>
</g>
<g id="Layer_6">
	<polygon fill="#41BDE1" points="766.137,458.363 766.137,600.409 626.363,600.409 626.363,624.273 791.137,624.273 
		791.137,458.363 	"/>
</g>
<g id="Layer_7">
	<g>
		<path fill="#FFFFFF" d="M530.888,505.841V346.887h31.228l65.055,106.15v-106.15h29.818v158.954h-32.203l-64.08-103.656v103.656
			H530.888z"/>
	</g>
</g>
<g id="Layer_8">
	<g>
		<g>
			<path fill="#FFFFFF" d="M160.004,734.592c4.129-1.614,7.772-3.036,10.926-4.267c3.154-1.229,6.157-2.345,9.012-3.345
				c6.908-2.459,14.08-4.074,21.515-4.844c0.901-0.075,1.839-0.115,2.816-0.115c6.308,0,12.315,2.191,18.023,6.574
				c9.085,7.149,13.63,22.488,13.63,46.014v41.518c0,4.998,1.876,8.17,5.632,9.514c3.754,1.347,5.632,2.98,5.632,4.901
				c0,1.614-0.751,2.422-2.253,2.422h-27.372c-1.278,0-1.915-0.499-1.915-1.499v-56.855c0-16.837-3.418-28.676-10.25-35.52
				c-4.356-4.383-9.687-6.573-15.995-6.573c-3.604,0-7.547,0.731-11.828,2.19c-1.653,0.617-3.737,1.404-6.251,2.364
				c-2.517,0.963-4.675,1.788-6.477,2.479c-1.802,0.692-3.418,1.309-4.844,1.846v74.73c0,4.998,1.876,8.17,5.632,9.514
				c3.754,1.347,5.632,2.98,5.632,4.901c0,1.614-0.751,2.422-2.253,2.422h-38.186c-1.577,0-2.365-0.808-2.365-2.422
				c0-1.921,1.876-3.555,5.632-4.901c3.754-1.344,5.632-4.516,5.632-9.514v-73.808c0-4.844-1.878-7.958-5.632-9.342
				c-3.756-1.384-5.632-3.074-5.632-5.074c0-1.614,0.789-2.422,2.365-2.422c4.957-0.23,9.856-1.018,14.7-2.364
				c4.844-1.344,9.668-2.863,14.475-4.555V734.592z"/>
			<path fill="#FFFFFF" d="M343.161,822.931l-30.977,11.647c-2.404,0.846-4.393,1.269-5.97,1.269h-4.618
				c-10.665-0.538-19.864-4.996-27.598-13.377c-7.735-8.38-12.128-18.683-13.179-30.907c-0.301-3.229-0.451-6.343-0.451-9.342
				c0-3.996,0.262-7.88,0.789-11.647c0.901-6.534,3.379-13.069,7.435-19.605c1.952-3.382,5.294-6.919,10.025-10.609
				c1.651-1.153,3.492-2.191,5.52-3.114c6.007-2.306,12.034-4.612,18.079-6.919c6.044-2.307,12.109-4.613,18.192-6.92
				c1.276-0.461,2.479-0.691,3.605-0.691h0.563c4.805,0.23,10.625,1.461,17.459,3.69c0.601,0.23,0.975,0.386,1.126,0.461
				c1.651,0.692,3.679,1.462,6.083,2.307c0.975,0.309,1.876,0.461,2.703,0.461c1.201,0,2.253-0.346,3.154-1.037
				c1.577-1.385,2.703-2.537,3.379-3.46c0.375-0.537,0.862-0.808,1.464-0.808c0.375,0,0.75,0.078,1.126,0.23
				c1.651,0.616,2.478,1.384,2.478,2.307v89.262c0,4.998,1.876,8.17,5.632,9.514c3.754,1.347,5.632,2.98,5.632,4.901
				c0,1.614-0.789,2.422-2.365,2.422h-27.373c-1.278,0-1.915-0.499-1.915-1.499V822.931z M343.161,744.279
				c-3.08-2.921-7.135-5.631-12.165-8.13c-5.032-2.498-9.501-3.824-13.405-3.979h-0.451c-1.503,0-3.004,0.309-4.505,0.923
				c-2.704,1-5.39,2.019-8.054,3.057c-2.667,1.037-5.351,2.058-8.054,3.056c-1.878,0.77-3.379,1.77-4.505,2.998
				c-4.657,5.075-7.772,11.227-9.35,18.452c-1.278,5.46-1.915,10.88-1.915,16.261c0,1.692,0.074,3.422,0.226,5.189
				c0.825,11.071,3.754,20.066,8.786,26.986c5.03,7.15,11.338,11.803,18.924,13.954c2.853,0.847,5.745,1.269,8.674,1.269
				c0.901,0,1.839-0.038,2.816-0.115c1.651-0.153,3.604-0.652,5.857-1.499c1.727-0.614,4.43-1.633,8.11-3.057
				c3.678-1.422,6.683-2.595,9.011-3.517V744.279z"/>
			<path fill="#FFFFFF" d="M500.637,816.127c0,4.998,1.876,8.17,5.632,9.514c3.754,1.347,5.632,2.98,5.632,4.901
				c0,1.614-0.789,2.422-2.365,2.422h-27.373c-1.278,0-1.915-0.499-1.915-1.499v-7.496c-4.131,1.614-7.792,3.056-10.982,4.324
				c-3.193,1.269-6.139,2.364-8.843,3.287c-6.984,2.382-14.156,3.959-21.515,4.729c-1.053,0.075-2.066,0.115-3.042,0.115
				c-6.234,0-12.166-2.153-17.797-6.458c-9.163-7.073-13.743-22.411-13.743-46.015v-41.632c0-4.844-1.878-7.958-5.632-9.342
				c-3.756-1.384-5.632-3.074-5.632-5.074c0-1.614,0.789-2.422,2.365-2.422c4.957-0.23,9.856-1.018,14.7-2.364
				c4.844-1.344,9.705-2.863,14.587-4.555v65.389c0,16.915,3.416,28.755,10.25,35.52c4.354,4.383,9.687,6.573,15.995,6.573
				c3.604,0,7.547-0.729,11.828-2.19c1.577-0.537,3.642-1.307,6.195-2.307c2.552-0.998,4.731-1.846,6.533-2.537
				c0.375-0.153,0.995-0.384,1.859-0.692c0.862-0.306,1.82-0.691,2.872-1.153v-74.845c0-4.844-1.878-7.958-5.632-9.342
				c-3.756-1.384-5.632-3.074-5.632-5.074c0-1.614,0.789-2.422,2.366-2.422c4.956-0.23,9.856-1.018,14.7-2.364
				c4.844-1.344,9.705-2.863,14.587-4.555V816.127z"/>
		</g>
	</g>
</g>
<g id="Layer_9">
	<g>
		<path fill="#FFFFFF" d="M831.686,824.65l-30.977,11.647c-2.404,0.846-4.394,1.269-5.97,1.269h-4.619
			c-10.664-0.538-19.863-4.996-27.598-13.377c-7.735-8.38-12.128-18.683-13.179-30.907c-0.301-3.229-0.451-6.343-0.451-9.342
			c0-3.996,0.263-7.88,0.789-11.647c0.901-6.534,3.379-13.069,7.435-19.605c1.952-3.382,5.294-6.919,10.025-10.609
			c1.65-1.153,3.491-2.191,5.52-3.114c6.007-2.306,12.033-4.612,18.079-6.919c6.044-2.307,12.108-4.613,18.191-6.92
			c1.276-0.461,2.479-0.691,3.604-0.691h0.563c4.805,0.23,10.625,1.461,17.46,3.69c0.6,0.23,0.975,0.386,1.126,0.461
			c1.651,0.692,3.679,1.462,6.083,2.307c0.975,0.309,1.876,0.461,2.703,0.461c1.2,0,2.253-0.346,3.154-1.037
			c1.577-1.385,2.703-2.537,3.379-3.46c0.375-0.537,0.862-0.808,1.465-0.808c0.375,0,0.75,0.078,1.126,0.23
			c1.651,0.616,2.479,1.384,2.479,2.307v89.262c0,4.998,1.876,8.17,5.632,9.514c3.755,1.347,5.633,2.98,5.633,4.901
			c0,1.614-0.789,2.422-2.366,2.422h-27.372c-1.277,0-1.915-0.499-1.915-1.499V824.65z M831.686,745.999
			c-3.08-2.921-7.135-5.631-12.165-8.13c-5.032-2.498-9.501-3.824-13.404-3.979h-0.451c-1.503,0-3.004,0.309-4.506,0.923
			c-2.703,1-5.389,2.019-8.054,3.057c-2.666,1.037-5.351,2.058-8.054,3.056c-1.878,0.77-3.38,1.77-4.506,2.998
			c-4.657,5.075-7.772,11.227-9.35,18.452c-1.277,5.46-1.915,10.88-1.915,16.261c0,1.692,0.074,3.422,0.226,5.189
			c0.825,11.071,3.754,20.066,8.786,26.986c5.03,7.15,11.338,11.803,18.924,13.954c2.854,0.847,5.745,1.269,8.674,1.269
			c0.901,0,1.839-0.038,2.815-0.115c1.651-0.153,3.605-0.652,5.858-1.499c1.727-0.614,4.43-1.633,8.109-3.057
			c3.679-1.422,6.684-2.595,9.012-3.517V745.999z"/>
		<path fill="#FFFFFF" d="M912.788,736.312c4.13-1.614,7.772-3.036,10.927-4.267c3.154-1.229,6.156-2.345,9.012-3.345
			c6.908-2.459,14.08-4.074,21.515-4.844c0.901-0.075,1.839-0.115,2.816-0.115c6.308,0,12.314,2.191,18.022,6.574
			c9.085,7.149,13.63,22.488,13.63,46.014v41.518c0,4.998,1.876,8.17,5.632,9.514c3.755,1.347,5.633,2.98,5.633,4.901
			c0,1.614-0.752,2.422-2.253,2.422H970.35c-1.278,0-1.915-0.499-1.915-1.499v-56.855c0-16.837-3.418-28.676-10.251-35.52
			c-4.356-4.383-9.688-6.573-15.995-6.573c-3.604,0-7.547,0.731-11.827,2.19c-1.653,0.617-3.737,1.404-6.252,2.364
			c-2.518,0.963-4.675,1.788-6.478,2.479c-1.802,0.692-3.418,1.309-4.844,1.846v74.73c0,4.998,1.877,8.17,5.633,9.514
			c3.754,1.347,5.632,2.98,5.632,4.901c0,1.614-0.751,2.422-2.253,2.422h-38.186c-1.577,0-2.366-0.808-2.366-2.422
			c0-1.921,1.877-3.555,5.633-4.901c3.754-1.344,5.632-4.516,5.632-9.514v-73.808c0-4.844-1.878-7.958-5.632-9.342
			c-3.756-1.384-5.633-3.074-5.633-5.074c0-1.614,0.789-2.422,2.366-2.422c4.956-0.23,9.856-1.018,14.699-2.364
			c4.844-1.344,9.668-2.863,14.475-4.555V736.312z"/>
	</g>
</g>
<g id="Layer_10">
	<g>
		<g>
			<path fill="#FFFFFF" d="M652.061,793.167l13.509,17.955c3.708,5.212,9.611,9.854,17.71,13.925
				c2.044,0.977,3.329,1.954,3.86,2.932c0.15,0.488,0.227,0.854,0.227,1.099c-0.152,0.327-0.227,0.531-0.227,0.611
				c-0.38,0.406-0.908,0.61-1.59,0.61h-27.7c-2.649,0-5.602-2.768-8.854-8.306c-2.497-4.153-5.071-7.897-7.72-11.237
				c-6.13,8.062-12.64,13.967-19.526,17.711c-6.964,3.664-14.797,5.496-23.499,5.496c-10.293,0-18.504-3.298-24.635-9.894
				c-5.525-6.107-8.287-13.883-8.287-23.33c0-0.977,0.037-1.954,0.113-2.931c0.454-9.772,3.216-18.484,8.287-26.14
				c4.769-7.491,12.942-15.391,24.521-23.696c-4.617-6.676-8.213-13.314-10.785-19.91c-2.27-5.618-3.405-11.604-3.405-17.955
				c0-1.058,0.037-2.157,0.113-3.298c0.378-10.749,3.67-19.462,9.877-26.14c6.054-6.432,13.963-9.649,23.727-9.649
				c9.61,0,16.952,2.607,22.023,7.817c4.768,4.886,7.152,11.359,7.152,19.421v2.077c-0.53,8.55-3.104,16.165-7.72,22.841
				c-4.921,7.005-12.413,13.885-22.478,20.643l30.424,42.873l12.715-25.528c0.604-1.302,0.982-2.645,1.135-4.03
				c0.075-0.489,0.114-0.936,0.114-1.344c0-0.813-0.114-1.588-0.341-2.321c-0.304-0.977-0.701-1.79-1.192-2.442
				c-0.493-0.651-0.852-1.344-1.078-2.077c-0.076-0.324-0.113-0.61-0.113-0.854v-0.366c0-0.08,0.074-0.367,0.227-0.855
				c0.528-1.546,1.323-2.32,2.384-2.32h29.29c0.755,0,1.323,0.244,1.702,0.732c0.075,0.082,0.113,0.244,0.113,0.488v0.245
				c0,0.244-0.038,0.53-0.113,0.854c-0.454,0.897-1.741,1.914-3.859,3.054c-1.136,0.57-2.384,1.182-3.746,1.832
				c-1.362,0.653-2.688,1.426-3.974,2.321c-5.602,3.908-10.37,9.038-14.304,15.391C662.201,775.822,657.51,783.722,652.061,793.167z
				 M636.621,803.915l-34.397-48.98c-11.883,9.283-18.127,20.603-18.731,33.957c-0.076,0.814-0.113,1.67-0.113,2.564
				c0,8.307,2.117,15.391,6.356,21.254c4.616,6.516,10.52,9.771,17.71,9.771c6.131,0,11.598-1.79,16.404-5.374
				C628.655,813.524,632.912,809.128,636.621,803.915z M612.327,737.346c6.886-4.397,11.92-9.363,15.099-14.901
				c3.103-5.455,4.919-12.377,5.449-20.766v-1.832c0-5.536-0.947-10.3-2.838-14.291c-2.12-4.315-6.472-6.474-13.056-6.474
				c-5.147,0-9.195,1.832-12.147,5.497c-3.027,3.908-4.693,9.16-4.994,15.757c-0.077,0.896-0.114,1.752-0.114,2.564
				C599.726,714.383,603.927,725.864,612.327,737.346z"/>
		</g>
	</g>
</g>
</svg>
